<?xml version="1.0" encoding="UTF-8"?>
<svg version="1.1" xmlns="http://www.w3.org/2000/svg" width="48" height="48">
<path d="M0 0 C0.83096191 -0.00945648 1.66192383 -0.01891296 2.51806641 -0.02865601 C3.41187012 -0.02258331 4.30567383 -0.01651062 5.2265625 -0.01025391 C6.14743652 -0.01312408 7.06831055 -0.01599426 8.01708984 -0.01895142 C9.96387344 -0.02099272 11.91067752 -0.01545824 13.85742188 -0.00292969 C16.84030949 0.01312303 19.82184211 -0.00277613 22.8046875 -0.02197266 C24.6953155 -0.01999024 26.58594265 -0.01614659 28.4765625 -0.01025391 C29.37036621 -0.0163266 30.26416992 -0.02239929 31.18505859 -0.02865601 C32.43150146 -0.01447128 32.43150146 -0.01447128 33.703125 0 C34.79874756 0.00358017 34.79874756 0.00358017 35.91650391 0.00723267 C38.45986924 0.50793967 39.33324096 1.30569741 40.8515625 3.38818359 C41.23251343 5.32324219 41.23251343 5.32324219 41.23974609 7.53662109 C41.24920258 8.36758301 41.25865906 9.19854492 41.2684021 10.0546875 C41.26232941 10.94849121 41.25625671 11.84229492 41.25 12.76318359 C41.25287018 13.68405762 41.25574036 14.60493164 41.25869751 15.55371094 C41.26073881 17.50049454 41.25520433 19.44729861 41.24267578 21.39404297 C41.22662306 24.37693059 41.24252222 27.35846321 41.26171875 30.34130859 C41.25973633 32.23193659 41.25589268 34.12256374 41.25 36.01318359 C41.25910904 37.35388916 41.25910904 37.35388916 41.2684021 38.72167969 C41.25894562 39.5526416 41.24948914 40.38360352 41.23974609 41.23974609 C41.23735931 41.97016113 41.23497253 42.70057617 41.23251343 43.453125 C40.73180643 45.99649034 39.93404868 46.86986205 37.8515625 48.38818359 C35.91650391 48.76913452 35.91650391 48.76913452 33.703125 48.77636719 C32.45668213 48.79055191 32.45668213 48.79055191 31.18505859 48.80502319 C30.29125488 48.7989505 29.39745117 48.79287781 28.4765625 48.78662109 C27.09525146 48.79092636 27.09525146 48.79092636 25.68603516 48.7953186 C23.73925156 48.79735991 21.79244748 48.79182543 19.84570312 48.77929688 C16.86281551 48.76324415 13.88128289 48.77914331 10.8984375 48.79833984 C9.0078095 48.79635742 7.11718235 48.79251377 5.2265625 48.78662109 C4.33275879 48.79269379 3.43895508 48.79876648 2.51806641 48.80502319 C1.27162354 48.79083847 1.27162354 48.79083847 0 48.77636719 C-0.73041504 48.77398041 -1.46083008 48.77159363 -2.21337891 48.76913452 C-4.75674424 48.26842752 -5.63011596 47.47066978 -7.1484375 45.38818359 C-7.52938843 43.453125 -7.52938843 43.453125 -7.53662109 41.23974609 C-7.54607758 40.40878418 -7.55553406 39.57782227 -7.5652771 38.72167969 C-7.55920441 37.82787598 -7.55313171 36.93407227 -7.546875 36.01318359 C-7.54974518 35.09230957 -7.55261536 34.17143555 -7.55557251 33.22265625 C-7.55761381 31.27587265 -7.55207933 29.32906857 -7.53955078 27.38232422 C-7.52349806 24.3994366 -7.53939722 21.41790398 -7.55859375 18.43505859 C-7.55661133 16.5444306 -7.55276768 14.65380345 -7.546875 12.76318359 C-7.55294769 11.86937988 -7.55902039 10.97557617 -7.5652771 10.0546875 C-7.55582062 9.22372559 -7.54636414 8.39276367 -7.53662109 7.53662109 C-7.53423431 6.80620605 -7.53184753 6.07579102 -7.52938843 5.32324219 C-6.68783977 1.04855522 -4.04755425 0.01322621 0 0 Z M29.8515625 12.38818359 C26.17274177 15.67284496 24.10006149 19.05179268 21.8515625 23.38818359 C21.8515625 24.04818359 21.8515625 24.70818359 21.8515625 25.38818359 C17.8915625 23.40818359 13.9315625 21.42818359 9.8515625 19.38818359 C5.67981508 23.48983893 5.67981508 23.48983893 2.8515625 28.38818359 C3.54296601 30.69106152 3.54296601 30.69106152 4.8515625 32.38818359 C5.6353125 31.58380859 6.4190625 30.77943359 7.2265625 29.95068359 C9.8515625 27.38818359 9.8515625 27.38818359 11.8515625 26.38818359 C14.18045385 27.61557228 16.34958203 29.02988513 18.5625 30.45458984 C20.76583306 31.59838867 20.76583306 31.59838867 22.875 30.98583984 C25.80855572 28.6146456 27.35209484 25.53533606 29.1015625 22.26318359 C29.46507813 21.60447266 29.82859375 20.94576172 30.203125 20.26708984 C31.09579986 18.64618023 31.97501925 17.01787323 32.8515625 15.38818359 C31.8615625 14.39818359 30.8715625 13.40818359 29.8515625 12.38818359 Z " fill="#000000" transform="translate(7.1484375,-0.38818359375)"/>
</svg>
